<svg width="1148" height="769" viewBox="0 0 1148 769" fill="none" xmlns="http://www.w3.org/2000/svg">
<path fill-rule="evenodd" clip-rule="evenodd" d="M977.316 354.881C982.093 348.684 985.326 341.09 984.786 332.581C983.229 308.065 952.346 313.458 946.339 325.832C940.332 338.206 941.045 369.594 948.809 371.805C951.906 372.687 958.502 370.527 965.215 366.055L961.001 398.998H985.881L977.316 354.881Z" fill="#B28B67"/>
<path fill-rule="evenodd" clip-rule="evenodd" d="M935.317 308.678C935.832 306.677 937.218 304.963 939.085 304.455C939.538 304.331 940.006 304.282 940.472 304.302C940.639 304.31 940.686 304.363 940.764 304.234C940.822 304.138 940.823 303.904 940.847 303.792C940.921 303.442 941.014 303.096 941.129 302.759C941.52 301.611 942.176 300.595 942.968 299.739C944.449 298.137 946.449 297.032 948.528 296.832C949.666 296.722 950.795 296.927 951.871 297.336C952.427 297.547 952.967 297.811 953.493 298.102C953.652 298.19 954.165 298.62 954.324 298.592C954.5 298.561 954.852 298.079 954.995 297.958C956.759 296.463 958.937 295.875 961.134 295.892C963.614 295.913 966.001 296.05 968.069 297.721C968.507 298.074 968.924 298.461 969.321 298.869C969.53 299.084 969.733 299.306 969.926 299.538C970.042 299.678 970.156 299.821 970.265 299.968C970.45 300.218 970.421 300.3 970.68 300.126C971.675 299.457 972.829 299.145 973.99 299.303C974.68 299.396 975.351 299.625 975.989 299.927C976.206 300.029 976.708 300.438 976.939 300.442C977.169 300.446 977.664 300.067 977.9 299.97C979.176 299.45 980.552 299.321 981.894 299.562C983.278 299.81 984.637 300.42 985.81 301.264C986.374 301.669 986.866 302.119 987.261 302.722C987.431 302.982 987.586 303.258 987.779 303.499C987.892 303.64 988.117 303.785 988.177 303.964C988.141 303.857 989.691 303.197 989.837 303.155C990.616 302.93 991.41 302.975 992.173 303.253C993.607 303.775 994.841 304.945 995.855 306.144C996.376 306.76 996.832 307.442 997.218 308.167C997.404 308.515 997.573 308.872 997.729 309.237C997.804 309.414 997.854 309.636 997.953 309.795C998.08 310 998.166 310.004 998.397 310.094C999.571 310.548 1000.64 311.318 1001.46 312.357C1002.28 313.409 1002.82 314.705 1003.04 316.069C1003.05 316.149 1003.06 316.482 1003.1 316.525C1003.16 316.585 1003.4 316.559 1003.49 316.57C1003.8 316.611 1004.1 316.67 1004.41 316.75C1004.97 316.896 1005.51 317.111 1006.02 317.392C1008.03 318.488 1009.46 320.543 1010.16 322.856C1010.9 325.283 1010.89 328.063 1010.01 330.445C1009.87 330.83 1009.7 331.203 1009.5 331.556C1009.38 331.773 1009.34 331.774 1009.42 332.001C1009.5 332.254 1009.67 332.5 1009.77 332.747C1010.11 333.555 1010.35 334.41 1010.5 335.285C1010.75 336.719 1010.87 338.226 1010.63 339.671C1010.51 340.342 1010.32 340.998 1010.02 341.595C1009.86 341.9 1009.68 342.189 1009.48 342.456C1009.37 342.595 1009.26 342.728 1009.14 342.855C1009.08 342.927 1008.99 342.991 1008.93 343.072C1008.79 343.269 1008.76 343.107 1008.83 343.397C1008.94 343.802 1009.16 344.203 1009.3 344.597C1009.45 345.004 1009.58 345.416 1009.69 345.833C1009.93 346.676 1010.14 347.534 1010.26 348.407C1010.51 350.084 1010.47 351.87 1009.75 353.408C1009.44 354.066 1009 354.644 1008.47 355.093C1008.21 355.312 1007.92 355.502 1007.63 355.657C1007.47 355.737 1007.28 355.772 1007.21 355.935C1007.13 356.11 1007.25 356.458 1007.27 356.654C1007.49 358.359 1007.6 360.149 1007.14 361.82C1006.72 363.359 1005.79 364.718 1004.58 365.617C1002.24 367.362 999.083 367.264 996.622 365.867C995.981 365.503 995.38 365.05 994.845 364.517C993.481 366.545 990.676 366.481 988.683 365.903C986.2 365.183 984.208 363.276 983.06 360.769C981.491 362.88 978.197 362.195 977.109 359.905C976.843 359.344 976.685 358.726 976.607 358.101C976.566 357.772 976.592 357.441 976.561 357.115C976.522 356.699 976.271 356.295 976.126 355.893C975.845 355.111 975.671 354.302 975.663 353.459C975.659 353.018 975.71 352.588 975.748 352.151C975.782 351.758 975.683 351.391 975.627 351.003C976.264 351.119 977.039 350.929 977.639 350.725C978.228 350.525 978.779 349.997 979.195 349.516C980.159 348.398 980.749 346.932 981.152 345.473C982.037 342.27 981.674 338.428 978.759 336.671C977.402 335.852 973.334 335.855 971.717 336.259C970.016 336.685 968.089 340.831 967.994 341.221C967.935 341.462 967.965 341.76 967.764 341.921C967.323 342.275 966.597 341.661 966.272 341.359C965.711 340.836 965.311 340.141 964.964 339.437C964.209 337.902 963.601 336.256 963.171 334.576C962.839 333.28 962.627 331.945 962.194 330.682C961.763 329.426 961.084 328.303 960.027 327.592C958.878 326.818 957.56 326.41 956.298 325.924C955.047 325.441 953.818 324.852 952.849 323.829C952.636 323.604 952.428 323.365 952.257 323.1C952.121 322.891 951.988 322.491 951.781 322.359C951.46 322.152 950.992 322.689 950.715 322.883C949.346 323.844 948.204 325.184 947.283 326.648C946.367 328.104 945.615 329.504 945.004 331.13C944.551 332.336 944.269 333.88 943.472 334.868C943.116 335.309 940.472 335.576 939.616 335.191C938.759 334.805 937.799 333.805 937.512 333.179C937.218 332.537 937.147 331.832 937.273 331.13C937.347 330.717 937.498 330.331 937.581 329.925C937.65 329.584 937.713 329.262 937.863 328.95C938.148 328.358 938.634 327.932 939.22 327.755C938.61 327.133 938.105 326.389 937.755 325.558C937.391 324.694 937.083 323.644 936.996 322.696C936.925 321.926 937.035 321.128 937.416 320.466C937.816 319.772 938.525 319.319 939.138 318.886C938.201 318.077 937.4 317.091 936.74 316.001C935.459 313.88 934.666 311.207 935.317 308.678Z" fill="#191847"/>
<path fill-rule="evenodd" clip-rule="evenodd" d="M994.097 493.802L944.252 639.556L909.315 746.984H889.393L937.418 493.802H994.097Z" fill="#1F28CF"/>
<path fill-rule="evenodd" clip-rule="evenodd" d="M1006.42 493.802C1006.96 543.813 1006.57 611.145 1007.83 614.262C1008.67 616.341 1034.85 640.02 1086.36 685.301L1076.09 704.596C1014.93 661.012 982.792 636.316 979.666 630.51C974.975 621.799 951.413 541.646 939.153 493.802H1006.42Z" fill="#2B44FF"/>
<path fill-rule="evenodd" clip-rule="evenodd" d="M1104.43 698.285L1087.08 683.699L1073.09 702.128C1072.01 716.022 1067.85 731.603 1060.6 748.873L1063.78 751.819L1089.1 718.47L1096.17 705.589L1097.76 707.061L1104.43 698.285Z" fill="#191847"/>
<path fill-rule="evenodd" clip-rule="evenodd" d="M911.163 767.605L910.127 743.547H888.357C878.034 751.567 864.557 758.059 847.926 763.023V767.605H887.32L900.797 765.314V767.605H911.163Z" fill="#191847"/>
<path fill-rule="evenodd" clip-rule="evenodd" d="M906.227 479.31L873.159 506.145C864.191 508.819 856.698 512.146 850.68 516.127C849.259 517.558 847.541 520.457 853.436 519.956C859.331 519.455 865.552 519.221 866.365 521.443C867.179 523.665 863.611 526.322 865.255 529.32C866.352 531.319 871.53 526.307 880.791 514.285L913.537 499.279L906.227 479.31ZM1033.19 480.236L1011.53 480.33C1024.9 528.05 1032.13 553.369 1033.19 556.289C1035.59 562.859 1030.51 572.864 1028.34 578.241C1035.41 581.737 1034.66 568.789 1043.58 573.375C1051.72 577.56 1057.91 585.144 1067.32 578.73C1068.47 577.942 1069.74 574.973 1066.68 572.653C1059.05 566.873 1048.06 556.758 1046.58 553.428C1044.55 548.887 1040.09 524.49 1033.19 480.236Z" fill="#B28B67"/>
<path fill-rule="evenodd" clip-rule="evenodd" d="M971.627 379.779L962.663 378.08C929.403 409.831 915.742 470.829 874.974 503.143L884.786 516.584C955.512 506.907 973.042 432.504 971.627 379.779Z" fill="#E87613"/>
<path fill-rule="evenodd" clip-rule="evenodd" d="M1010.7 504.271C974.761 504.271 948.322 504.271 931.387 504.271C927.763 504.271 928.446 498.488 928.97 495.57C935.016 461.888 958.621 425.58 958.621 377.635L981.5 373.67C1000.42 407.304 1006.97 448.714 1010.7 504.271Z" fill="#DDE3E9"/>
<path fill-rule="evenodd" clip-rule="evenodd" d="M1010.07 406.731C1013.39 405.675 1016.02 403.213 1017.96 399.345C1026.32 382.671 1023.3 373.49 1014.37 370.472C1005.43 367.454 997.461 373.67 983.222 373.67C982.448 373.67 981.739 373.724 981.094 373.831L973.932 374.283C953.383 451.247 947.715 502.595 956.93 528.329H1019.36C1023.06 537.861 1026.6 545.88 1029.98 552.388H1046.99C1048.59 495.183 1036.28 446.631 1010.07 406.731Z" fill="#FF9B21"/>
<path fill-rule="evenodd" clip-rule="evenodd" d="M1005.76 488.803C1003.8 506.957 1000.61 520.132 996.191 528.329H1019.36C1015.04 517.211 1010.51 504.036 1005.76 488.803Z" fill="black" fill-opacity="0.1"/>
<path d="M4.21198 388.851L9.47698 368.493L10.413 368.61C12.87 385.458 23.634 397.626 40.833 397.626C56.16 397.626 68.796 391.191 68.796 376.683C68.796 349.305 5.03098 361.356 5.03098 325.437C5.03098 306.249 25.155 299.229 44.343 299.229C57.096 299.229 67.275 301.803 78.39 307.302L72.54 327.543L71.37 327.426C70.785 311.982 59.202 300.516 44.226 300.516C30.537 300.516 18.252 307.77 18.252 320.991C18.252 346.731 82.485 333.51 82.485 370.248C82.485 391.893 62.946 398.796 40.95 398.796C27.495 398.796 15.561 395.871 4.21198 388.851ZM90.9337 375.747C90.9337 360.888 104.389 354.921 119.95 352.113C112.813 350.709 108.016 346.497 106.495 342.285C105.676 340.179 105.208 338.19 105.208 336.318C105.208 334.914 105.091 331.287 108.367 326.841C111.643 322.395 117.376 319.353 125.449 319.353C144.637 319.353 160.549 326.022 162.07 345.327C162.187 346.614 162.304 348.018 162.304 349.305V375.63C162.304 386.745 161.719 397.509 170.377 397.509V398.796C154.231 398.796 147.328 394.467 147.328 379.491C142.999 391.776 133.639 398.796 119.248 398.913C118.897 398.913 118.546 398.913 118.312 398.913C100.645 398.913 90.9337 390.138 90.9337 375.747ZM106.027 376.8C106.027 388.617 111.058 395.871 122.875 395.871C136.447 395.871 147.328 388.032 147.328 366.27V351.762C132.82 351.762 106.027 351.645 106.027 376.8ZM106.495 336.786C106.612 338.541 106.963 340.296 107.782 342.168C111.058 348.837 117.961 351.411 125.098 351.411C131.65 350.592 137.851 350.475 143.818 350.475H147.328C146.977 333.276 141.946 320.991 125.215 320.64C115.504 320.64 106.495 326.022 106.495 336.786ZM230.671 398.796V397.626C238.276 397.626 239.797 393.765 239.914 385.341V335.967C239.914 326.139 240.382 321.108 232.543 320.523V319.353C239.212 318.768 248.806 316.779 255.124 313.971V347.784C257.932 332.925 265.42 319.704 280.396 319.353C281.098 319.353 281.8 319.353 282.502 319.353C292.798 319.353 302.041 322.629 308.71 329.532C315.262 336.552 318.889 346.614 319.24 358.899V385.458C319.357 393.765 320.878 397.626 328.483 397.626V398.796C322.984 398.445 317.602 398.328 312.571 398.328C307.54 398.328 303.211 398.445 300.052 398.562C298.18 398.679 296.542 398.679 295.021 398.796V397.626C303.328 397.626 304.264 393.999 304.264 385.458V360.186C304.264 349.773 303.094 339.711 299.467 332.223C295.84 324.852 289.99 320.523 280.747 320.523C280.63 320.523 280.396 320.523 280.279 320.523C263.197 321.108 255.475 341.466 255.124 359.718V386.043C255.241 393.999 256.996 397.626 264.367 397.626V398.796C256.528 398.445 252.316 398.211 248.104 398.211C243.541 398.211 239.446 398.445 231.373 398.796H230.671ZM336.931 397.626C344.536 397.626 346.057 393.765 346.174 385.341V315.609C346.174 305.781 346.642 300.75 338.803 300.165V298.995C345.472 298.41 355.066 296.421 361.384 293.613V366.153C364.075 356.208 371.446 350.826 378.934 346.497C386.422 342.168 394.027 337.02 397.888 327.192C398.122 326.49 398.239 325.671 398.239 325.086C398.239 323.565 398.005 321.342 393.676 320.406L393.793 319.353C398.005 319.704 400.579 319.821 403.504 319.821C405.961 319.821 408.652 319.704 412.864 319.353H413.215V320.406C403.972 321.342 402.217 323.682 397.186 331.638C390.985 342.753 379.987 346.263 371.914 352.815C373.669 352.464 375.307 352.23 376.711 352.23C380.923 352.23 384.667 353.517 387.358 355.272C400.462 363.228 403.738 388.149 419.299 397.626V398.796C416.959 398.679 415.087 398.679 413.566 398.679H409.12C406.312 398.679 403.621 398.796 398.941 398.796C391.921 386.511 384.199 357.261 375.775 354.453C374.956 354.102 374.02 353.985 373.201 353.985C371.563 353.985 370.042 354.687 368.521 355.974C364.426 360.186 361.735 365.685 361.384 374.46V386.043C361.501 393.999 363.256 397.626 370.627 397.626V398.796C364.777 398.562 359.044 398.445 353.545 398.445C348.046 398.445 342.547 398.562 336.931 398.796V397.626ZM424.681 375.747C424.681 360.888 438.136 354.921 453.697 352.113C446.56 350.709 441.763 346.497 440.242 342.285C439.423 340.179 438.955 338.19 438.955 336.318C438.955 334.914 438.838 331.287 442.114 326.841C445.39 322.395 451.123 319.353 459.196 319.353C478.384 319.353 494.296 326.022 495.817 345.327C495.934 346.614 496.051 348.018 496.051 349.305V375.63C496.051 386.745 495.466 397.509 504.124 397.509V398.796C487.978 398.796 481.075 394.467 481.075 379.491C476.746 391.776 467.386 398.796 452.995 398.913C452.644 398.913 452.293 398.913 452.059 398.913C434.392 398.913 424.681 390.138 424.681 375.747ZM439.774 376.8C439.774 388.617 444.805 395.871 456.622 395.871C470.194 395.871 481.075 388.032 481.075 366.27V351.762C466.567 351.762 439.774 351.645 439.774 376.8ZM440.242 336.786C440.359 338.541 440.71 340.296 441.529 342.168C444.805 348.837 451.708 351.411 458.845 351.411C465.397 350.592 471.598 350.475 477.565 350.475H481.075C480.724 333.276 475.693 320.991 458.962 320.64C449.251 320.64 440.242 326.022 440.242 336.786ZM529.393 398.328C523.777 398.328 518.161 398.445 512.545 398.796V397.626C520.15 397.626 521.671 393.765 521.788 385.341V315.609C521.788 305.781 522.256 300.75 514.417 300.165V298.995C521.086 298.41 530.68 296.421 536.998 293.613V386.043C537.115 393.999 538.87 397.626 546.241 397.626V398.796C540.625 398.445 535.009 398.328 529.393 398.328ZM554.706 427.695C561.375 427.695 562.311 421.494 562.662 413.538V330.585C562.311 324.267 561.375 321.108 555.174 320.523V319.353C561.726 318.768 571.554 316.662 577.755 313.971V347.784C580.212 332.457 590.742 319.353 607.473 319.353C629.937 319.353 641.871 335.265 641.871 359.601C641.871 384.405 627.363 398.796 607.59 398.796C607.356 398.796 607.239 398.796 607.005 398.796C593.082 398.796 580.563 387.096 577.755 372.354V413.772C578.106 421.728 579.042 427.695 585.711 427.695V428.982C578.808 428.514 575.064 428.28 570.969 428.28C566.64 428.28 562.545 428.514 554.706 428.982V427.695ZM577.872 359.133C577.872 359.718 577.872 360.303 577.872 360.888C577.872 364.983 577.872 371.301 580.68 377.97C585.126 389.436 595.656 397.509 606.888 397.509C607.122 397.509 607.356 397.509 607.59 397.509C621.981 397.509 626.895 380.895 626.895 359.601C626.895 342.636 624.438 320.64 607.473 320.64C595.773 320.64 584.307 328.245 580.212 342.636C578.34 347.55 577.872 355.038 577.872 359.133ZM650.34 375.747C650.34 360.888 663.795 354.921 679.356 352.113C672.219 350.709 667.422 346.497 665.901 342.285C665.082 340.179 664.614 338.19 664.614 336.318C664.614 334.914 664.497 331.287 667.773 326.841C671.049 322.395 676.782 319.353 684.855 319.353C704.043 319.353 719.955 326.022 721.476 345.327C721.593 346.614 721.71 348.018 721.71 349.305V375.63C721.71 386.745 721.125 397.509 729.783 397.509V398.796C713.637 398.796 706.734 394.467 706.734 379.491C702.405 391.776 693.045 398.796 678.654 398.913C678.303 398.913 677.952 398.913 677.718 398.913C660.051 398.913 650.34 390.138 650.34 375.747ZM665.433 376.8C665.433 388.617 670.464 395.871 682.281 395.871C695.853 395.871 706.734 388.032 706.734 366.27V351.762C692.226 351.762 665.433 351.645 665.433 376.8ZM665.901 336.786C666.018 338.541 666.369 340.296 667.188 342.168C670.464 348.837 677.367 351.411 684.504 351.411C691.056 350.592 697.257 350.475 703.224 350.475H706.734C706.383 333.276 701.352 320.991 684.621 320.64C674.91 320.64 665.901 326.022 665.901 336.786ZM738.204 388.851L743.469 368.493L744.405 368.61C746.862 385.458 757.626 397.626 774.825 397.626C790.152 397.626 802.788 391.191 802.788 376.683C802.788 349.305 739.023 361.356 739.023 325.437C739.023 306.249 759.147 299.229 778.335 299.229C791.088 299.229 801.267 301.803 812.382 307.302L806.532 327.543L805.362 327.426C804.777 311.982 793.194 300.516 778.218 300.516C764.529 300.516 752.244 307.77 752.244 320.991C752.244 346.731 816.477 333.51 816.477 370.248C816.477 391.893 796.938 398.796 774.942 398.796C761.487 398.796 749.553 395.871 738.204 388.851ZM824.926 320.523V319.353C828.202 319.47 831.478 319.587 834.754 319.587C836.86 319.587 842.593 319.587 849.145 319.236V357.963C849.145 367.791 850.081 377.853 853.474 385.341C856.75 392.829 862.483 397.626 871.609 397.626C871.96 397.626 872.194 397.626 872.545 397.626C889.744 397.275 897.934 376.449 898.285 358.431V332.106C898.168 324.15 896.53 320.523 889.042 320.523V319.353C894.307 319.704 898.051 319.704 901.21 319.704C905.422 319.704 908.698 319.704 913.495 319.353V382.182C913.495 388.149 913.027 397.509 921.451 397.509V398.796C905.188 398.796 898.285 394.467 898.285 379.491V370.365C895.477 384.288 887.287 398.445 872.428 398.796C871.726 398.796 871.024 398.796 870.322 398.796C860.026 398.796 850.9 395.52 844.465 388.5C837.913 381.597 834.286 371.418 834.169 359.133V332.691C834.052 324.384 832.531 320.523 824.926 320.523ZM1033.67 359.25C1033.67 336.201 1049 319.353 1072.52 319.353C1082.81 319.353 1092.17 322.278 1100.72 328.011L1096.27 343.572H1095.68C1093.23 331.17 1085.15 320.523 1072.75 320.523C1054.5 320.523 1048.42 338.892 1048.42 357.144C1048.42 376.449 1054.85 397.392 1074.27 397.392C1086.91 396.456 1095.22 388.617 1100.01 377.034L1101.18 377.502C1095.68 390.723 1085.86 398.796 1071.7 398.796C1049.47 398.796 1033.67 381.597 1033.67 359.25ZM1109.66 397.626C1117.26 397.626 1118.78 393.765 1118.9 385.341V341.349C1118.9 331.521 1119.37 326.49 1111.53 325.905V324.735C1118.2 324.15 1127.79 322.161 1134.11 319.353V386.043C1134.23 393.999 1135.98 397.626 1143.35 397.626V398.796C1138.67 398.445 1132 398.328 1124.87 398.328C1119.84 398.328 1114.69 398.445 1109.66 398.796V397.626ZM1117.5 305.196C1117.5 300.048 1120.89 295.953 1125.92 295.953C1131.18 295.953 1134.46 300.165 1134.46 305.196C1134.46 309.993 1130.95 314.205 1125.92 314.205C1121.12 314.205 1117.5 310.812 1117.5 305.196Z" fill="#2D1717"/>
<path fill-rule="evenodd" clip-rule="evenodd" d="M528.639 69.5949C525.11 65.4572 522.722 60.3864 523.121 54.7044C524.271 38.333 547.084 41.9345 551.522 50.1974C555.959 58.4603 555.432 79.4197 549.697 80.8965C547.41 81.4854 542.537 80.0428 537.578 77.0568L540.691 99.0549H522.312L528.639 69.5949Z" fill="#B28B67"/>
<path fill-rule="evenodd" clip-rule="evenodd" d="M541.046 40.6742C538.624 40.2773 532.102 40.0045 530.899 40.0047C530.13 40.0047 529.297 40.1801 528.842 39.4751C528.469 38.8977 528.606 37.9212 528.495 37.2513C528.365 36.4729 528.182 35.7047 527.996 34.9383C527.468 32.7577 526.669 30.683 525.552 28.7352C523.455 25.0809 520.383 22.2184 516.505 20.5528C512.222 18.7136 507.376 18.2925 502.769 18.6655C497.84 19.0646 493.377 20.6903 488.723 22.2202C484.287 23.678 479.642 24.2518 475.003 23.5399C470.329 22.8227 466.797 20.2921 462.855 17.8902C458.819 15.4313 454.207 13.823 449.436 14.1927C444.982 14.5379 440.877 16.375 437.195 18.829C433.749 21.125 430.906 23.8874 429.301 27.7753C427.574 31.9575 427.576 36.5481 430.415 40.2442C434.531 45.6017 442.172 46.9872 448.529 46.8494C452.206 46.77 455.817 46.0995 459.288 44.8798C463.918 43.253 467.919 40.4959 472.25 38.2589C474.283 37.2092 476.384 36.347 478.586 35.726C480.723 35.1231 482.828 34.8466 484.762 36.1362C486.809 37.5005 488.643 38.8406 490.985 39.6947C493.231 40.5141 495.611 40.9723 498.004 40.9538C502.661 40.9179 507.251 39.4685 511.773 38.4977C515.461 37.7062 519.408 36.9173 523.167 37.6782C524.736 37.9958 527.028 38.6513 527.595 40.2802C518.057 42.0069 514.311 53.79 517 62.4399C518.451 67.1086 527.174 72.5662 530.566 70.1118C532.715 68.5569 531.41 66.5155 530.566 65.168C528.949 62.5873 528.396 59.2724 531.388 57.4757C533.968 55.9261 536.682 59.606 536.733 59.6019C537.442 59.5461 543.57 56.0838 547.793 51.0314C551.958 51.2781 552.59 48.5344 551.596 46.2905C550.601 44.0467 544.393 41.2228 541.046 40.6742Z" fill="#191847"/>
<path d="M514.654 295.66C547.22 295.66 573.62 270.486 573.62 239.432C573.62 208.379 547.22 183.205 514.654 183.205C482.088 183.205 455.688 208.379 455.688 239.432C455.688 270.486 482.088 295.66 514.654 295.66Z" fill="#C5CFD6"/>
<path fill-rule="evenodd" clip-rule="evenodd" d="M626.083 286.985C616.272 265.291 609.176 246.4 606.327 236.434C601.451 219.368 597.74 204.352 596.803 198.744C594.567 185.371 614.004 184.593 616.573 191.239C620.462 201.298 627.25 234.347 635.407 284.267L626.083 286.985ZM512.271 218.902C521.274 215.348 552.799 204.223 568.004 201.076C572.374 200.172 576.609 199.332 580.59 198.572C592.424 196.315 598.556 217.643 587.158 219.282C558.772 223.363 518.531 227.577 515.087 228.05C510.261 228.713 506.613 221.136 512.271 218.902Z" fill="#B28B67"/>
<path fill-rule="evenodd" clip-rule="evenodd" d="M587.854 192.703L539.159 167.941V162.55H544.95C592.06 174.542 616.133 182.227 617.169 185.605C617.18 185.642 617.191 185.678 617.2 185.714C617.224 185.746 617.247 185.777 617.27 185.808C626.606 198.635 632.197 261.255 634.032 265.944L616.142 268.61C609.299 243.26 587.404 225.6 587.986 195.238C587.829 194.347 587.789 193.502 587.854 192.703Z" fill="#1F28CF"/>
<path fill-rule="evenodd" clip-rule="evenodd" d="M543.205 207.41C538.75 206.519 534.647 205.724 531.136 205.109C508.458 201.135 501.845 189.008 505.755 162.55H547.538C554.364 164.508 589.835 179.368 608.239 187.272C620.419 192.503 616.579 211.36 609.682 216.268C609.644 216.569 609.52 216.773 609.299 216.865C572.193 232.228 542.839 224.167 533.033 226.743L528.497 212.45L543.205 207.41Z" fill="#2B44FF"/>
<path fill-rule="evenodd" clip-rule="evenodd" d="M515.346 216.63C512.915 216.861 511.19 217.226 510.17 217.723C508.929 218.327 507.219 219.415 505.041 220.988C505.743 222.427 512.056 235.355 523.98 259.772C527.806 259.156 529.322 257.698 528.527 255.397C527.733 253.096 527.092 251.175 526.605 249.634L525.843 227.691C525.828 227.268 525.474 226.938 525.051 226.952C525.044 226.953 525.037 226.953 525.029 226.953L521.651 227.165C519.731 225.612 518.464 224.207 517.85 222.95C517.352 221.929 517.076 220.318 517.023 218.116C517.002 217.272 516.3 216.603 515.455 216.623C515.418 216.624 515.382 216.626 515.346 216.63Z" fill="#E4E4E4"/>
<path fill-rule="evenodd" clip-rule="evenodd" d="M621.618 282.962C620.761 285.247 620.333 286.956 620.333 288.091C620.333 289.47 620.563 291.483 621.023 294.13C622.625 294.13 637.022 294.13 664.215 294.13C665.337 290.423 664.689 288.422 662.271 288.126C659.853 287.831 657.844 287.564 656.245 287.326L636.169 278.385C635.783 278.213 635.33 278.387 635.158 278.772C635.155 278.779 635.152 278.786 635.15 278.792L633.859 281.919C631.621 282.963 629.801 283.485 628.402 283.485C627.265 283.485 625.694 283.026 623.69 282.108C622.922 281.756 622.012 282.093 621.66 282.861C621.645 282.895 621.631 282.928 621.618 282.962Z" fill="#E4E4E4"/>
<path fill-rule="evenodd" clip-rule="evenodd" d="M586.638 141.602L614.386 129.429C619.247 124.59 623.941 120.912 628.468 118.396C629.821 117.965 632.134 117.835 629.666 121.435C627.199 125.035 624.766 128.933 625.752 130.194C626.738 131.456 629.594 130.064 630.722 132.115C631.474 133.483 626.66 135.119 616.28 137.024L595.498 152.941L586.638 141.602ZM474.456 144.955L490.149 148.065C474.367 177.445 465.904 193.017 464.759 194.779C462.182 198.746 464.586 206.015 465.474 209.843C459.903 211.139 462.1 202.762 455.05 204.511C448.615 206.107 443.159 210.204 437.159 204.679C436.421 204 435.881 201.876 438.396 200.787C444.663 198.074 453.921 192.994 455.422 191.022C457.469 188.332 463.814 172.976 474.456 144.955Z" fill="#B28B67"/>
<path fill-rule="evenodd" clip-rule="evenodd" d="M532.799 86.304L539.421 85.1693C553.844 99.146 559.73 132.724 569.342 137.169C578.43 141.371 591.312 137.305 606.625 131.814L611.315 142.281C597.401 157.318 567.761 170.022 555.746 162.769C536.537 151.174 532.103 109.76 532.799 86.304Z" fill="#DB2721"/>
<path fill-rule="evenodd" clip-rule="evenodd" d="M503.933 169.435C530.484 169.435 550.015 169.435 562.525 169.435C565.202 169.435 564.697 165.573 564.31 163.624C559.844 141.133 542.407 116.888 542.407 84.8724L525.507 82.225C511.528 104.684 506.693 132.336 503.933 169.435Z" fill="#DDE3E9"/>
<path fill-rule="evenodd" clip-rule="evenodd" d="M498.089 146.663C486.145 168.186 476.105 183.682 467.969 193.15L455.688 190.747C463.599 141.735 486.509 105.561 524.416 82.225H527.467H531.108C546.28 133.891 550.463 168.316 543.656 185.5H490.914C491.749 172.926 494.424 159.628 498.089 146.663Z" fill="#FF4133"/>
<path fill-rule="evenodd" clip-rule="evenodd" d="M183.373 359.143C178.567 353.502 175.314 346.589 175.858 338.843C177.424 316.525 208.492 321.435 214.535 332.699C220.579 343.964 219.861 372.537 212.05 374.55C208.935 375.353 202.3 373.386 195.546 369.316L199.785 399.305H174.756L183.373 359.143Z" fill="#B28B67"/>
<path fill-rule="evenodd" clip-rule="evenodd" d="M203.497 334.333C200.1 336.233 197.683 339.793 194.773 344.463C194.064 344.184 193.293 344.031 192.485 344.031C189.029 344.031 186.228 346.833 186.228 350.289C186.228 352.043 186.95 353.629 188.113 354.765C186.665 356.809 185.042 358.944 183.183 361.146C176.244 356.984 171.083 344.85 177.708 333.137C183.409 309.676 215.709 324.238 221.923 320.281C223.281 328.795 218.9 335.66 203.497 334.333Z" fill="#191847"/>
<path fill-rule="evenodd" clip-rule="evenodd" d="M173.748 489.844L224.935 619.399L259.266 728.928H272.823L220.338 489.844H173.748Z" fill="#997659"/>
<path fill-rule="evenodd" clip-rule="evenodd" d="M163.441 489.844C162.896 535.37 154.946 596.665 153.676 599.503C152.83 601.395 123.602 625.454 65.9917 671.681L75.329 681.673C143.303 642.039 178.863 619.579 182.009 614.293C186.727 606.364 202.088 533.398 214.421 489.844H163.441Z" fill="#B28B67"/>
<path fill-rule="evenodd" clip-rule="evenodd" d="M64.7428 668.345C61.6069 669.453 59.4467 670.504 58.2622 671.498C56.8216 672.707 54.9207 674.711 52.5596 677.51C53.9619 679.182 66.5651 694.202 90.3691 722.57C95.2227 720.493 96.7454 718.063 94.9372 715.281C93.129 712.5 91.6491 710.17 90.4977 708.293L82.2608 679.515C82.1023 678.961 81.5249 678.641 80.9712 678.799C80.9617 678.802 80.9523 678.805 80.9429 678.808L76.5477 680.202C73.4983 678.781 71.361 677.34 70.1358 675.88C69.1404 674.694 68.2448 672.653 67.449 669.759C67.1436 668.648 65.9956 667.995 64.8849 668.301C64.837 668.314 64.7896 668.329 64.7428 668.345Z" fill="#191847"/>
<path fill-rule="evenodd" clip-rule="evenodd" d="M253.715 723.871C252.549 726.986 251.965 729.316 251.965 730.863C251.965 732.743 252.278 735.488 252.905 739.096C255.087 739.096 274.694 739.096 311.726 739.096C313.255 734.042 312.372 731.314 309.079 730.911C305.786 730.508 303.05 730.145 300.872 729.82L273.532 717.632C273.006 717.397 272.39 717.634 272.155 718.16C272.151 718.169 272.147 718.178 272.143 718.187L270.386 722.45C267.337 723.872 264.86 724.583 262.954 724.583C261.405 724.583 259.266 723.958 256.538 722.707C255.491 722.227 254.252 722.687 253.772 723.734C253.752 723.779 253.733 723.825 253.715 723.871Z" fill="#191847"/>
<path fill-rule="evenodd" clip-rule="evenodd" d="M208.164 717.646L272.619 710.651L224.85 489.844H167.119L208.164 717.646Z" fill="#69A1AC"/>
<path fill-rule="evenodd" clip-rule="evenodd" d="M79.3242 655.56L121.603 705.604C166.135 656.968 192.097 625.232 199.489 610.398C206.882 595.564 213.527 555.379 219.426 489.844H154.432C151.21 547.499 149.038 577.668 147.916 580.351C146.794 583.034 123.93 608.104 79.3242 655.56Z" fill="#89C5CC"/>
<path fill-rule="evenodd" clip-rule="evenodd" d="M267.843 477.237L298.492 506.944C307.41 510.724 314.717 514.897 320.413 519.464C321.694 520.999 323.088 523.941 317.062 522.624C311.035 521.308 304.636 520.193 303.503 522.14C302.371 524.088 305.708 527.072 303.615 529.62C302.219 531.319 297.526 525.915 289.534 513.407L257.663 494.738L267.843 477.237ZM117.967 450.351L141.659 450.439C123.614 508.525 114.035 538.938 112.923 541.677C110.419 547.842 115.717 557.23 117.983 562.276C110.604 565.556 111.39 553.407 102.081 557.71C93.5851 561.637 87.1221 568.753 77.3058 562.735C76.099 561.995 74.7765 559.209 77.9718 557.032C85.9326 551.609 97.4045 542.117 98.9546 538.993C101.068 534.732 107.406 505.185 117.967 450.351Z" fill="#B28B67"/>
<path fill-rule="evenodd" clip-rule="evenodd" d="M190.16 383.575L199.516 381.981C214.254 433.744 289.979 469.027 294.627 488.377C296.332 495.473 291.192 499.061 293.847 501.222L281.687 510.067C279.627 507.68 275.233 512.046 266.055 508.992C256.878 505.937 190.16 444.867 190.16 383.575Z" fill="#DB2721"/>
<path fill-rule="evenodd" clip-rule="evenodd" d="M205.898 390.457C204.819 458.987 244.692 476.468 235.81 503.959C228.476 526.661 158.278 551.065 146.13 528.812C141.213 519.804 138.982 508.91 138.729 497.065C135.624 506.165 133.169 513.999 131.363 520.567C128.247 531.897 116.167 533.698 116.167 538.063L100.252 533.698C101.331 527.768 93.8282 524.881 95.8399 511.633C104.853 452.275 129.071 409.248 168.493 382.553L168.91 376.63C169.076 374.334 171.068 372.602 173.365 372.758L202.818 374.804C205.116 374.96 206.85 376.953 206.69 379.251C206.69 379.251 206.69 379.254 206.686 379.255L205.898 390.457Z" fill="#FF4133"/>
<path d="M409.268 467.718H407.266L399.214 455.508V467.718H397.212V452.362H399.214L407.266 464.55V452.362H409.268V467.718ZM423.373 455.662V467.718H421.371V465.936C420.99 466.552 420.454 467.036 419.765 467.388C419.09 467.725 418.342 467.894 417.521 467.894C416.582 467.894 415.739 467.703 414.991 467.322C414.243 466.926 413.649 466.339 413.209 465.562C412.784 464.785 412.571 463.839 412.571 462.724V455.662H414.551V462.46C414.551 463.648 414.852 464.565 415.453 465.21C416.054 465.841 416.876 466.156 417.917 466.156C418.988 466.156 419.831 465.826 420.447 465.166C421.063 464.506 421.371 463.545 421.371 462.284V455.662H423.373ZM428.755 457.62C429.107 456.931 429.606 456.395 430.251 456.014C430.911 455.633 431.711 455.442 432.649 455.442V457.51H432.121C429.877 457.51 428.755 458.727 428.755 461.162V467.718H426.753V455.662H428.755V457.62ZM437.402 457.312V464.418C437.402 465.005 437.527 465.423 437.776 465.672C438.026 465.907 438.458 466.024 439.074 466.024H440.548V467.718H438.744C437.63 467.718 436.794 467.461 436.236 466.948C435.679 466.435 435.4 465.591 435.4 464.418V457.312H433.838V455.662H435.4V452.626H437.402V455.662H440.548V457.312H437.402ZM453.666 455.662V467.718H451.664V465.936C451.283 466.552 450.747 467.036 450.058 467.388C449.383 467.725 448.635 467.894 447.814 467.894C446.875 467.894 446.032 467.703 445.284 467.322C444.536 466.926 443.942 466.339 443.502 465.562C443.077 464.785 442.864 463.839 442.864 462.724V455.662H444.844V462.46C444.844 463.648 445.145 464.565 445.746 465.21C446.347 465.841 447.169 466.156 448.21 466.156C449.281 466.156 450.124 465.826 450.74 465.166C451.356 464.506 451.664 463.545 451.664 462.284V455.662H453.666ZM459.048 457.62C459.4 456.931 459.899 456.395 460.544 456.014C461.204 455.633 462.004 455.442 462.942 455.442V457.51H462.414C460.17 457.51 459.048 458.727 459.048 461.162V467.718H457.046V455.662H459.048V457.62ZM466.287 453.704C465.906 453.704 465.583 453.572 465.319 453.308C465.055 453.044 464.923 452.721 464.923 452.34C464.923 451.959 465.055 451.636 465.319 451.372C465.583 451.108 465.906 450.976 466.287 450.976C466.654 450.976 466.962 451.108 467.211 451.372C467.475 451.636 467.607 451.959 467.607 452.34C467.607 452.721 467.475 453.044 467.211 453.308C466.962 453.572 466.654 453.704 466.287 453.704ZM467.255 455.662V467.718H465.253V455.662H467.255ZM476.541 455.442C478.008 455.442 479.196 455.889 480.105 456.784C481.015 457.664 481.469 458.94 481.469 460.612V467.718H479.489V460.898C479.489 459.695 479.189 458.779 478.587 458.148C477.986 457.503 477.165 457.18 476.123 457.18C475.067 457.18 474.224 457.51 473.593 458.17C472.977 458.83 472.669 459.791 472.669 461.052V467.718H470.667V455.662H472.669V457.378C473.065 456.762 473.601 456.285 474.275 455.948C474.965 455.611 475.72 455.442 476.541 455.442ZM489.712 455.464C490.753 455.464 491.662 455.691 492.44 456.146C493.232 456.601 493.818 457.173 494.2 457.862V455.662H496.224V467.982C496.224 469.082 495.989 470.057 495.52 470.908C495.05 471.773 494.376 472.448 493.496 472.932C492.63 473.416 491.618 473.658 490.46 473.658C488.876 473.658 487.556 473.284 486.5 472.536C485.444 471.788 484.82 470.769 484.63 469.478H486.61C486.83 470.211 487.284 470.798 487.974 471.238C488.663 471.693 489.492 471.92 490.46 471.92C491.56 471.92 492.454 471.575 493.144 470.886C493.848 470.197 494.2 469.229 494.2 467.982V465.452C493.804 466.156 493.217 466.743 492.44 467.212C491.662 467.681 490.753 467.916 489.712 467.916C488.641 467.916 487.666 467.652 486.786 467.124C485.92 466.596 485.238 465.855 484.74 464.902C484.241 463.949 483.992 462.863 483.992 461.646C483.992 460.414 484.241 459.336 484.74 458.412C485.238 457.473 485.92 456.747 486.786 456.234C487.666 455.721 488.641 455.464 489.712 455.464ZM494.2 461.668C494.2 460.759 494.016 459.967 493.65 459.292C493.283 458.617 492.784 458.104 492.154 457.752C491.538 457.385 490.856 457.202 490.108 457.202C489.36 457.202 488.678 457.378 488.062 457.73C487.446 458.082 486.954 458.595 486.588 459.27C486.221 459.945 486.038 460.737 486.038 461.646C486.038 462.57 486.221 463.377 486.588 464.066C486.954 464.741 487.446 465.261 488.062 465.628C488.678 465.98 489.36 466.156 490.108 466.156C490.856 466.156 491.538 465.98 492.154 465.628C492.784 465.261 493.283 464.741 493.65 464.066C494.016 463.377 494.2 462.577 494.2 461.668ZM507.474 452.384V467.718H505.472V452.384H507.474ZM510.138 461.646C510.138 460.414 510.387 459.336 510.886 458.412C511.385 457.473 512.067 456.747 512.932 456.234C513.812 455.721 514.795 455.464 515.88 455.464C516.819 455.464 517.691 455.684 518.498 456.124C519.305 456.549 519.921 457.114 520.346 457.818V451.438H522.37V467.718H520.346V465.452C519.95 466.171 519.363 466.765 518.586 467.234C517.809 467.689 516.899 467.916 515.858 467.916C514.787 467.916 513.812 467.652 512.932 467.124C512.067 466.596 511.385 465.855 510.886 464.902C510.387 463.949 510.138 462.863 510.138 461.646ZM520.346 461.668C520.346 460.759 520.163 459.967 519.796 459.292C519.429 458.617 518.931 458.104 518.3 457.752C517.684 457.385 517.002 457.202 516.254 457.202C515.506 457.202 514.824 457.378 514.208 457.73C513.592 458.082 513.101 458.595 512.734 459.27C512.367 459.945 512.184 460.737 512.184 461.646C512.184 462.57 512.367 463.377 512.734 464.066C513.101 464.741 513.592 465.261 514.208 465.628C514.824 465.98 515.506 466.156 516.254 466.156C517.002 466.156 517.684 465.98 518.3 465.628C518.931 465.261 519.429 464.741 519.796 464.066C520.163 463.377 520.346 462.577 520.346 461.668ZM536.753 461.228C536.753 461.609 536.731 462.013 536.687 462.438H527.051C527.125 463.626 527.528 464.557 528.261 465.232C529.009 465.892 529.911 466.222 530.967 466.222C531.833 466.222 532.551 466.024 533.123 465.628C533.71 465.217 534.121 464.675 534.355 464H536.511C536.189 465.159 535.543 466.105 534.575 466.838C533.607 467.557 532.405 467.916 530.967 467.916C529.823 467.916 528.797 467.659 527.887 467.146C526.993 466.633 526.289 465.907 525.775 464.968C525.262 464.015 525.005 462.915 525.005 461.668C525.005 460.421 525.255 459.329 525.753 458.39C526.252 457.451 526.949 456.733 527.843 456.234C528.753 455.721 529.794 455.464 530.967 455.464C532.111 455.464 533.123 455.713 534.003 456.212C534.883 456.711 535.558 457.4 536.027 458.28C536.511 459.145 536.753 460.128 536.753 461.228ZM534.685 460.81C534.685 460.047 534.517 459.395 534.179 458.852C533.842 458.295 533.38 457.877 532.793 457.598C532.221 457.305 531.583 457.158 530.879 457.158C529.867 457.158 529.002 457.481 528.283 458.126C527.579 458.771 527.176 459.666 527.073 460.81H534.685ZM538.648 461.646C538.648 460.414 538.897 459.336 539.396 458.412C539.895 457.473 540.577 456.747 541.442 456.234C542.322 455.721 543.297 455.464 544.368 455.464C545.424 455.464 546.341 455.691 547.118 456.146C547.895 456.601 548.475 457.173 548.856 457.862V455.662H550.88V467.718H548.856V465.474C548.46 466.178 547.866 466.765 547.074 467.234C546.297 467.689 545.387 467.916 544.346 467.916C543.275 467.916 542.307 467.652 541.442 467.124C540.577 466.596 539.895 465.855 539.396 464.902C538.897 463.949 538.648 462.863 538.648 461.646ZM548.856 461.668C548.856 460.759 548.673 459.967 548.306 459.292C547.939 458.617 547.441 458.104 546.81 457.752C546.194 457.385 545.512 457.202 544.764 457.202C544.016 457.202 543.334 457.378 542.718 457.73C542.102 458.082 541.611 458.595 541.244 459.27C540.877 459.945 540.694 460.737 540.694 461.646C540.694 462.57 540.877 463.377 541.244 464.066C541.611 464.741 542.102 465.261 542.718 465.628C543.334 465.98 544.016 466.156 544.764 466.156C545.512 466.156 546.194 465.98 546.81 465.628C547.441 465.261 547.939 464.741 548.306 464.066C548.673 463.377 548.856 462.577 548.856 461.668ZM558.531 467.916C557.607 467.916 556.778 467.762 556.045 467.454C555.312 467.131 554.732 466.691 554.307 466.134C553.882 465.562 553.647 464.909 553.603 464.176H555.671C555.73 464.777 556.008 465.269 556.507 465.65C557.02 466.031 557.688 466.222 558.509 466.222C559.272 466.222 559.873 466.053 560.313 465.716C560.753 465.379 560.973 464.953 560.973 464.44C560.973 463.912 560.738 463.523 560.269 463.274C559.8 463.01 559.074 462.753 558.091 462.504C557.196 462.269 556.463 462.035 555.891 461.8C555.334 461.551 554.85 461.191 554.439 460.722C554.043 460.238 553.845 459.607 553.845 458.83C553.845 458.214 554.028 457.649 554.395 457.136C554.762 456.623 555.282 456.219 555.957 455.926C556.632 455.618 557.402 455.464 558.267 455.464C559.602 455.464 560.68 455.801 561.501 456.476C562.322 457.151 562.762 458.075 562.821 459.248H560.819C560.775 458.617 560.518 458.111 560.049 457.73C559.594 457.349 558.978 457.158 558.201 457.158C557.482 457.158 556.91 457.312 556.485 457.62C556.06 457.928 555.847 458.331 555.847 458.83C555.847 459.226 555.972 459.556 556.221 459.82C556.485 460.069 556.808 460.275 557.189 460.436C557.585 460.583 558.128 460.751 558.817 460.942C559.682 461.177 560.386 461.411 560.929 461.646C561.472 461.866 561.934 462.203 562.315 462.658C562.711 463.113 562.916 463.707 562.931 464.44C562.931 465.1 562.748 465.694 562.381 466.222C562.014 466.75 561.494 467.168 560.819 467.476C560.159 467.769 559.396 467.916 558.531 467.916ZM567.825 464.946L565.361 470.864H564.019L565.625 464.946H567.825ZM575.236 460.04C575.236 458.544 575.573 457.202 576.248 456.014C576.922 454.811 577.839 453.873 578.998 453.198C580.171 452.523 581.469 452.186 582.892 452.186C584.564 452.186 586.023 452.589 587.27 453.396C588.516 454.203 589.426 455.347 589.998 456.828H587.6C587.174 455.904 586.558 455.193 585.752 454.694C584.96 454.195 584.006 453.946 582.892 453.946C581.821 453.946 580.86 454.195 580.01 454.694C579.159 455.193 578.492 455.904 578.008 456.828C577.524 457.737 577.282 458.808 577.282 460.04C577.282 461.257 577.524 462.328 578.008 463.252C578.492 464.161 579.159 464.865 580.01 465.364C580.86 465.863 581.821 466.112 582.892 466.112C584.006 466.112 584.96 465.87 585.752 465.386C586.558 464.887 587.174 464.176 587.6 463.252H589.998C589.426 464.719 588.516 465.855 587.27 466.662C586.023 467.454 584.564 467.85 582.892 467.85C581.469 467.85 580.171 467.52 578.998 466.86C577.839 466.185 576.922 465.254 576.248 464.066C575.573 462.878 575.236 461.536 575.236 460.04ZM594.98 457.62C595.332 456.931 595.831 456.395 596.476 456.014C597.136 455.633 597.935 455.442 598.874 455.442V457.51H598.346C596.102 457.51 594.98 458.727 594.98 461.162V467.718H592.978V455.662H594.98V457.62ZM600.437 461.646C600.437 460.414 600.686 459.336 601.185 458.412C601.684 457.473 602.366 456.747 603.231 456.234C604.111 455.721 605.086 455.464 606.157 455.464C607.213 455.464 608.13 455.691 608.907 456.146C609.684 456.601 610.264 457.173 610.645 457.862V455.662H612.669V467.718H610.645V465.474C610.249 466.178 609.655 466.765 608.863 467.234C608.086 467.689 607.176 467.916 606.135 467.916C605.064 467.916 604.096 467.652 603.231 467.124C602.366 466.596 601.684 465.855 601.185 464.902C600.686 463.949 600.437 462.863 600.437 461.646ZM610.645 461.668C610.645 460.759 610.462 459.967 610.095 459.292C609.728 458.617 609.23 458.104 608.599 457.752C607.983 457.385 607.301 457.202 606.553 457.202C605.805 457.202 605.123 457.378 604.507 457.73C603.891 458.082 603.4 458.595 603.033 459.27C602.666 459.945 602.483 460.737 602.483 461.646C602.483 462.57 602.666 463.377 603.033 464.066C603.4 464.741 603.891 465.261 604.507 465.628C605.123 465.98 605.805 466.156 606.553 466.156C607.301 466.156 607.983 465.98 608.599 465.628C609.23 465.261 609.728 464.741 610.095 464.066C610.462 463.377 610.645 462.577 610.645 461.668ZM620.958 457.312H618.428V467.718H616.426V457.312H614.864V455.662H616.426V454.804C616.426 453.455 616.771 452.472 617.46 451.856C618.164 451.225 619.286 450.91 620.826 450.91V452.582C619.946 452.582 619.323 452.758 618.956 453.11C618.604 453.447 618.428 454.012 618.428 454.804V455.662H620.958V457.312ZM625.734 457.312V464.418C625.734 465.005 625.859 465.423 626.108 465.672C626.358 465.907 626.79 466.024 627.406 466.024H628.88V467.718H627.076C625.962 467.718 625.126 467.461 624.568 466.948C624.011 466.435 623.732 465.591 623.732 464.418V457.312H622.17V455.662H623.732V452.626H625.734V455.662H628.88V457.312H625.734ZM632.34 453.704C631.959 453.704 631.636 453.572 631.372 453.308C631.108 453.044 630.976 452.721 630.976 452.34C630.976 451.959 631.108 451.636 631.372 451.372C631.636 451.108 631.959 450.976 632.34 450.976C632.707 450.976 633.015 451.108 633.264 451.372C633.528 451.636 633.66 451.959 633.66 452.34C633.66 452.721 633.528 453.044 633.264 453.308C633.015 453.572 632.707 453.704 632.34 453.704ZM633.308 455.662V467.718H631.306V455.662H633.308ZM642.594 455.442C644.061 455.442 645.249 455.889 646.158 456.784C647.067 457.664 647.522 458.94 647.522 460.612V467.718H645.542V460.898C645.542 459.695 645.241 458.779 644.64 458.148C644.039 457.503 643.217 457.18 642.176 457.18C641.12 457.18 640.277 457.51 639.646 458.17C639.03 458.83 638.722 459.791 638.722 461.052V467.718H636.72V455.662H638.722V457.378C639.118 456.762 639.653 456.285 640.328 455.948C641.017 455.611 641.773 455.442 642.594 455.442ZM655.764 455.464C656.806 455.464 657.715 455.691 658.492 456.146C659.284 456.601 659.871 457.173 660.252 457.862V455.662H662.276V467.982C662.276 469.082 662.042 470.057 661.572 470.908C661.103 471.773 660.428 472.448 659.548 472.932C658.683 473.416 657.671 473.658 656.512 473.658C654.928 473.658 653.608 473.284 652.552 472.536C651.496 471.788 650.873 470.769 650.682 469.478H652.662C652.882 470.211 653.337 470.798 654.026 471.238C654.716 471.693 655.544 471.92 656.512 471.92C657.612 471.92 658.507 471.575 659.196 470.886C659.9 470.197 660.252 469.229 660.252 467.982V465.452C659.856 466.156 659.27 466.743 658.492 467.212C657.715 467.681 656.806 467.916 655.764 467.916C654.694 467.916 653.718 467.652 652.838 467.124C651.973 466.596 651.291 465.855 650.792 464.902C650.294 463.949 650.044 462.863 650.044 461.646C650.044 460.414 650.294 459.336 650.792 458.412C651.291 457.473 651.973 456.747 652.838 456.234C653.718 455.721 654.694 455.464 655.764 455.464ZM660.252 461.668C660.252 460.759 660.069 459.967 659.702 459.292C659.336 458.617 658.837 458.104 658.206 457.752C657.59 457.385 656.908 457.202 656.16 457.202C655.412 457.202 654.73 457.378 654.114 457.73C653.498 458.082 653.007 458.595 652.64 459.27C652.274 459.945 652.09 460.737 652.09 461.646C652.09 462.57 652.274 463.377 652.64 464.066C653.007 464.741 653.498 465.261 654.114 465.628C654.73 465.98 655.412 466.156 656.16 466.156C656.908 466.156 657.59 465.98 658.206 465.628C658.837 465.261 659.336 464.741 659.702 464.066C660.069 463.377 660.252 462.577 660.252 461.668ZM680.963 452.384V454.012H676.783V467.718H674.781V454.012H670.579V452.384H680.963ZM694.427 461.228C694.427 461.609 694.405 462.013 694.361 462.438H684.725C684.798 463.626 685.202 464.557 685.935 465.232C686.683 465.892 687.585 466.222 688.641 466.222C689.506 466.222 690.225 466.024 690.797 465.628C691.384 465.217 691.794 464.675 692.029 464H694.185C693.862 465.159 693.217 466.105 692.249 466.838C691.281 467.557 690.078 467.916 688.641 467.916C687.497 467.916 686.47 467.659 685.561 467.146C684.666 466.633 683.962 465.907 683.449 464.968C682.936 464.015 682.679 462.915 682.679 461.668C682.679 460.421 682.928 459.329 683.427 458.39C683.926 457.451 684.622 456.733 685.517 456.234C686.426 455.721 687.468 455.464 688.641 455.464C689.785 455.464 690.797 455.713 691.677 456.212C692.557 456.711 693.232 457.4 693.701 458.28C694.185 459.145 694.427 460.128 694.427 461.228ZM692.359 460.81C692.359 460.047 692.19 459.395 691.853 458.852C691.516 458.295 691.054 457.877 690.467 457.598C689.895 457.305 689.257 457.158 688.553 457.158C687.541 457.158 686.676 457.481 685.957 458.126C685.253 458.771 684.85 459.666 684.747 460.81H692.359ZM696.322 461.668C696.322 460.421 696.571 459.336 697.07 458.412C697.568 457.473 698.258 456.747 699.138 456.234C700.032 455.721 701.052 455.464 702.196 455.464C703.677 455.464 704.894 455.823 705.848 456.542C706.816 457.261 707.454 458.258 707.762 459.534H705.606C705.4 458.801 704.997 458.221 704.396 457.796C703.809 457.371 703.076 457.158 702.196 457.158C701.052 457.158 700.128 457.554 699.424 458.346C698.72 459.123 698.368 460.231 698.368 461.668C698.368 463.12 698.72 464.242 699.424 465.034C700.128 465.826 701.052 466.222 702.196 466.222C703.076 466.222 703.809 466.017 704.396 465.606C704.982 465.195 705.386 464.609 705.606 463.846H707.762C707.439 465.078 706.794 466.068 705.826 466.816C704.858 467.549 703.648 467.916 702.196 467.916C701.052 467.916 700.032 467.659 699.138 467.146C698.258 466.633 697.568 465.907 697.07 464.968C696.571 464.029 696.322 462.929 696.322 461.668ZM716.417 455.442C717.326 455.442 718.148 455.64 718.881 456.036C719.614 456.417 720.186 456.997 720.597 457.774C721.022 458.551 721.235 459.497 721.235 460.612V467.718H719.255V460.898C719.255 459.695 718.954 458.779 718.353 458.148C717.752 457.503 716.93 457.18 715.889 457.18C714.833 457.18 713.99 457.51 713.359 458.17C712.743 458.83 712.435 459.791 712.435 461.052V467.718H710.433V451.438H712.435V457.378C712.831 456.762 713.374 456.285 714.063 455.948C714.767 455.611 715.552 455.442 716.417 455.442ZM730.379 455.442C731.846 455.442 733.034 455.889 733.943 456.784C734.853 457.664 735.307 458.94 735.307 460.612V467.718H733.327V460.898C733.327 459.695 733.027 458.779 732.425 458.148C731.824 457.503 731.003 457.18 729.961 457.18C728.905 457.18 728.062 457.51 727.431 458.17C726.815 458.83 726.507 459.791 726.507 461.052V467.718H724.505V455.662H726.507V457.378C726.903 456.762 727.439 456.285 728.113 455.948C728.803 455.611 729.558 455.442 730.379 455.442ZM743.835 467.916C742.706 467.916 741.679 467.659 740.755 467.146C739.846 466.633 739.127 465.907 738.599 464.968C738.086 464.015 737.829 462.915 737.829 461.668C737.829 460.436 738.093 459.351 738.621 458.412C739.164 457.459 739.897 456.733 740.821 456.234C741.745 455.721 742.779 455.464 743.923 455.464C745.067 455.464 746.101 455.721 747.025 456.234C747.949 456.733 748.675 457.451 749.203 458.39C749.746 459.329 750.017 460.421 750.017 461.668C750.017 462.915 749.739 464.015 749.181 464.968C748.639 465.907 747.898 466.633 746.959 467.146C746.021 467.659 744.979 467.916 743.835 467.916ZM743.835 466.156C744.554 466.156 745.229 465.987 745.859 465.65C746.49 465.313 746.996 464.807 747.377 464.132C747.773 463.457 747.971 462.636 747.971 461.668C747.971 460.7 747.781 459.879 747.399 459.204C747.018 458.529 746.519 458.031 745.903 457.708C745.287 457.371 744.62 457.202 743.901 457.202C743.168 457.202 742.493 457.371 741.877 457.708C741.276 458.031 740.792 458.529 740.425 459.204C740.059 459.879 739.875 460.7 739.875 461.668C739.875 462.651 740.051 463.479 740.403 464.154C740.77 464.829 741.254 465.335 741.855 465.672C742.457 465.995 743.117 466.156 743.835 466.156ZM754.652 451.438V467.718H752.65V451.438H754.652ZM763.322 467.916C762.192 467.916 761.166 467.659 760.242 467.146C759.332 466.633 758.614 465.907 758.086 464.968C757.572 464.015 757.316 462.915 757.316 461.668C757.316 460.436 757.58 459.351 758.108 458.412C758.65 457.459 759.384 456.733 760.308 456.234C761.232 455.721 762.266 455.464 763.41 455.464C764.554 455.464 765.588 455.721 766.512 456.234C767.436 456.733 768.162 457.451 768.69 458.39C769.232 459.329 769.504 460.421 769.504 461.668C769.504 462.915 769.225 464.015 768.668 464.968C768.125 465.907 767.384 466.633 766.446 467.146C765.507 467.659 764.466 467.916 763.322 467.916ZM763.322 466.156C764.04 466.156 764.715 465.987 765.346 465.65C765.976 465.313 766.482 464.807 766.864 464.132C767.26 463.457 767.458 462.636 767.458 461.668C767.458 460.7 767.267 459.879 766.886 459.204C766.504 458.529 766.006 458.031 765.39 457.708C764.774 457.371 764.106 457.202 763.388 457.202C762.654 457.202 761.98 457.371 761.364 457.708C760.762 458.031 760.278 458.529 759.912 459.204C759.545 459.879 759.362 460.7 759.362 461.668C759.362 462.651 759.538 463.479 759.89 464.154C760.256 464.829 760.74 465.335 761.342 465.672C761.943 465.995 762.603 466.156 763.322 466.156ZM777.108 455.464C778.149 455.464 779.059 455.691 779.836 456.146C780.628 456.601 781.215 457.173 781.596 457.862V455.662H783.62V467.982C783.62 469.082 783.385 470.057 782.916 470.908C782.447 471.773 781.772 472.448 780.892 472.932C780.027 473.416 779.015 473.658 777.856 473.658C776.272 473.658 774.952 473.284 773.896 472.536C772.84 471.788 772.217 470.769 772.026 469.478H774.006C774.226 470.211 774.681 470.798 775.37 471.238C776.059 471.693 776.888 471.92 777.856 471.92C778.956 471.92 779.851 471.575 780.54 470.886C781.244 470.197 781.596 469.229 781.596 467.982V465.452C781.2 466.156 780.613 466.743 779.836 467.212C779.059 467.681 778.149 467.916 777.108 467.916C776.037 467.916 775.062 467.652 774.182 467.124C773.317 466.596 772.635 465.855 772.136 464.902C771.637 463.949 771.388 462.863 771.388 461.646C771.388 460.414 771.637 459.336 772.136 458.412C772.635 457.473 773.317 456.747 774.182 456.234C775.062 455.721 776.037 455.464 777.108 455.464ZM781.596 461.668C781.596 460.759 781.413 459.967 781.046 459.292C780.679 458.617 780.181 458.104 779.55 457.752C778.934 457.385 778.252 457.202 777.504 457.202C776.756 457.202 776.074 457.378 775.458 457.73C774.842 458.082 774.351 458.595 773.984 459.27C773.617 459.945 773.434 460.737 773.434 461.646C773.434 462.57 773.617 463.377 773.984 464.066C774.351 464.741 774.842 465.261 775.458 465.628C776.074 465.98 776.756 466.156 777.504 466.156C778.252 466.156 778.934 465.98 779.55 465.628C780.181 465.261 780.679 464.741 781.046 464.066C781.413 463.377 781.596 462.577 781.596 461.668ZM797.387 455.662L790.127 473.394H788.059L790.435 467.586L785.573 455.662H787.795L791.579 465.43L795.319 455.662H797.387Z" fill="black"/>
</svg>
